<?xml version="1.0" standalone="no"?>
<!DOCTYPE svg PUBLIC "-//W3C//DTD SVG 20010904//EN"
 "http://www.w3.org/TR/2001/REC-SVG-20010904/DTD/svg10.dtd">
<svg version="1.0" xmlns="http://www.w3.org/2000/svg"
 width="2263.000000pt" height="2263.000000pt" viewBox="0 0 2263.000000 2263.000000"
 preserveAspectRatio="xMidYMid meet">
<metadata>
Created by potrace 1.11, written by Peter Selinger 2001-2013
</metadata>
<g transform="translate(0.000000,2263.000000) scale(0.100000,-0.100000)"
fill="#000000" stroke="none">
<path d="M7970 22627 c3 -3 50 -29 105 -57 55 -29 124 -68 153 -86 29 -19 55
-34 58 -34 18 0 406 -271 444 -310 3 -3 39 -34 80 -70 106 -92 211 -200 295
-305 70 -88 170 -235 159 -235 -3 0 4 -14 16 -30 12 -17 23 -36 24 -43 2 -14
37 -82 95 -187 72 -129 227 -451 265 -551 20 -53 45 -130 55 -170 17 -69 39
-119 85 -194 180 -291 302 -423 511 -552 86 -53 342 -163 414 -178 9 -2 43
-11 76 -19 52 -14 98 -22 170 -31 11 -1 43 -3 70 -4 46 -1 52 -4 69 -35 25
-47 18 -87 -18 -105 -31 -14 -278 -20 -370 -7 -67 8 -179 36 -190 47 -6 5 -19
9 -30 9 -17 0 -36 -29 -91 -138 -38 -75 -77 -148 -86 -162 -9 -14 -42 -69 -74
-123 -31 -53 -79 -120 -105 -148 l-47 -50 80 -100 79 -100 39 53 c49 65 54 69
107 66 42 -2 73 -23 84 -58 9 -26 -23 -113 -48 -133 -50 -39 -24 -83 95 -162
166 -110 300 -165 337 -138 51 36 116 225 118 341 0 21 4 23 51 21 78 -3 75 2
74 -128 0 -64 0 -161 1 -216 l1 -100 62 -27 c137 -61 249 -89 357 -89 68 -1
163 17 202 37 15 8 30 14 33 14 3 0 12 5 20 12 8 7 35 29 58 48 62 50 118 137
173 269 16 37 -26 306 -73 470 -8 29 -17 61 -18 70 -2 9 -4 17 -5 19 -2 1 -3
5 -4 10 -57 242 -253 696 -425 985 -42 71 -81 136 -86 145 -73 123 -346 483
-434 573 -91 93 -108 116 -119 168 -7 30 -11 55 -10 57 2 1 40 4 86 7 l82 5
58 -66 c31 -37 62 -72 68 -78 5 -6 30 -35 55 -64 24 -28 53 -62 64 -74 11 -12
45 -51 75 -86 30 -34 63 -72 74 -84 10 -12 29 -35 42 -52 20 -26 30 -31 57
-28 46 6 32 -3 308 179 326 214 378 249 374 254 -2 2 -19 6 -37 10 -23 5 -34
13 -35 26 -1 11 -4 48 -8 83 l-7 62 107 0 c58 0 115 -5 126 -11 17 -9 28 -5
62 18 23 15 44 31 45 36 2 4 8 7 14 7 6 0 24 12 42 26 17 14 99 76 181 137 83
61 155 115 160 119 178 141 315 267 315 288 0 5 -13 16 -28 25 -26 16 -28 21
-27 81 0 35 4 64 10 65 5 0 24 3 40 5 25 3 56 9 175 29 175 31 461 156 600
263 74 57 92 78 68 79 -7 0 -26 3 -43 7 -116 23 -613 24 -694 2 -9 -3 -47 -8
-86 -11 -38 -4 -72 -8 -75 -10 -3 -2 -30 -6 -60 -10 -29 -3 -57 -8 -61 -10 -4
-3 -24 -7 -46 -10 -44 -5 -244 -49 -307 -66 -22 -7 -48 -13 -56 -14 -12 -2
-235 -66 -275 -79 -5 -2 -14 -4 -20 -6 -5 -1 -25 -8 -44 -16 -18 -8 -43 -16
-55 -18 -48 -10 -485 -184 -696 -278 -25 -11 -58 -26 -75 -33 -147 -64 -502
-239 -526 -261 -8 -8 -20 -14 -25 -14 -13 0 -175 -108 -213 -142 -25 -23 -40
-28 -83 -28 l-53 0 -55 82 c-30 44 -59 86 -65 92 -5 6 -26 34 -45 61 -152 220
-484 595 -527 595 -7 0 -13 4 -13 8 0 16 -75 50 -120 56 -25 3 -61 10 -80 16
-58 18 -120 25 -230 24 -87 -1 -122 -6 -195 -29 -50 -16 -92 -31 -95 -34 -3
-3 -24 -16 -47 -29 -32 -17 -53 -22 -88 -18 -43 4 -59 12 -110 61 -27 25 -116
101 -175 150 -25 20 -54 44 -65 53 -113 93 -402 278 -448 286 -12 3 -22 5 -22
6 0 0 -25 3 -55 5 -30 3 -66 7 -80 11 -14 3 -23 3 -20 1z"/>
<path d="M7219 21515 c-2 -2 -77 -6 -166 -9 -90 -2 -167 -7 -172 -11 -23 -13
7 -38 103 -84 116 -56 323 -139 366 -146 3 0 34 -10 70 -22 73 -24 294 -84
325 -88 11 -2 52 -10 90 -18 72 -16 94 -20 180 -36 28 -5 62 -12 76 -14 14 -3
45 3 67 13 82 37 192 48 281 29 45 -9 49 -13 45 -35 -2 -13 -5 -42 -7 -64 -1
-22 -5 -40 -9 -41 -12 -2 -48 -1 -50 1 -9 5 -88 4 -88 -2 0 -9 42 -48 52 -48
4 0 31 -11 60 -24 29 -13 87 -38 128 -56 41 -18 98 -43 125 -55 28 -13 120
-53 205 -90 85 -37 173 -75 195 -85 22 -10 60 -27 85 -38 229 -101 283 -123
298 -120 39 7 28 42 -136 398 -12 25 -54 119 -95 210 -110 242 -106 236 -132
238 -43 3 -199 32 -305 56 -102 23 -183 40 -245 51 -16 2 -39 7 -50 9 -11 2
-47 7 -80 11 -32 4 -68 9 -79 11 -11 2 -42 6 -70 9 -28 2 -73 7 -101 10 -27 4
-79 8 -115 10 -36 3 -94 7 -130 10 -210 15 -680 24 -680 12 0 -4 -8 -3 -19 2
-10 6 -20 9 -22 6z"/>
<path d="M10891 17718 c-13 -7 -30 -23 -38 -35 -13 -20 -12 -25 21 -61 20 -22
36 -42 36 -45 0 -3 -24 -20 -52 -38 -76 -49 -230 -170 -325 -256 -102 -92
-320 -310 -390 -389 -28 -33 -65 -75 -83 -94 -94 -103 -315 -371 -433 -527
-143 -188 -373 -620 -498 -938 -22 -55 -44 -109 -49 -120 -24 -47 -126 -356
-180 -540 -76 -262 -155 -615 -185 -830 -3 -22 -10 -65 -15 -95 -5 -30 -12
-77 -15 -105 -3 -27 -8 -63 -10 -80 -6 -45 -14 -131 -20 -210 -8 -101 -15
-181 -20 -203 -2 -10 -6 -43 -9 -73 -4 -30 -8 -67 -10 -84 -3 -16 -14 -103
-26 -193 -23 -179 -25 -185 -116 -298 -90 -113 -201 -198 -297 -230 -29 -9
-57 -20 -63 -25 -13 -11 -116 -37 -173 -45 -83 -11 -377 -4 -431 11 -8 2 -37
6 -65 9 -27 3 -88 13 -135 21 -47 9 -119 22 -160 29 -74 14 -157 24 -255 31
-73 6 -332 6 -385 0 -25 -2 -70 -7 -100 -10 -331 -30 -677 -138 -1064 -331
-60 -30 -121 -63 -136 -74 -16 -11 -31 -20 -35 -20 -14 0 -231 -150 -315 -217
-300 -240 -546 -573 -640 -866 -20 -61 -21 -80 -15 -200 7 -143 10 -176 19
-221 3 -16 8 -50 12 -75 9 -62 9 -62 38 -174 121 -458 413 -853 801 -1082 41
-25 75 -42 75 -38 0 3 -17 33 -38 67 -22 34 -54 88 -72 121 -18 33 -42 75 -52
94 -32 56 -103 220 -131 301 -39 113 -65 225 -82 350 -15 108 -4 273 29 415
33 146 136 325 260 449 92 93 160 142 249 178 448 183 997 100 1552 -235 277
-167 387 -288 429 -473 25 -111 11 -274 -36 -424 -30 -96 -37 -114 -103 -245
-100 -197 -152 -267 -360 -478 -251 -253 -410 -429 -570 -631 -16 -20 -35 -43
-41 -49 -5 -7 -44 -57 -85 -112 -40 -55 -76 -102 -79 -105 -16 -16 -199 -294
-262 -400 -148 -247 -273 -507 -333 -690 -29 -92 -28 -87 -45 -205 -18 -125
-19 -136 -25 -205 -7 -75 -7 -426 0 -485 2 -22 7 -69 10 -105 5 -58 22 -179
40 -295 40 -251 169 -675 295 -970 77 -181 247 -512 216 -422 -7 21 -42 232
-50 297 -3 25 -8 70 -11 100 -14 123 -20 404 -10 524 6 89 16 181 21 206 2 14
6 39 9 55 17 126 72 340 121 471 44 120 122 278 176 358 22 32 41 67 43 78 11
55 131 248 266 430 125 166 453 567 503 613 6 6 38 41 71 80 59 68 80 92 255
285 47 51 92 101 100 110 24 28 201 219 250 270 104 110 318 336 358 379 24
25 111 114 192 197 297 301 634 761 880 1199 47 83 183 359 195 395 1 3 6 16
12 30 70 165 116 300 153 452 28 113 29 132 35 426 3 169 8 366 10 437 2 72 6
238 10 370 3 132 8 312 10 400 3 88 7 252 10 365 3 113 8 277 10 365 3 88 7
243 10 345 16 631 20 698 51 895 39 256 144 602 270 893 58 135 195 409 263
526 28 49 51 90 51 91 0 3 56 95 110 180 83 131 213 320 309 450 101 137 102
138 129 171 9 12 31 39 47 60 37 48 225 275 240 290 5 6 28 32 49 57 42 51 65
59 73 27 3 -11 8 -20 12 -20 4 0 25 -23 46 -52 22 -28 44 -56 50 -62 12 -13
158 -204 230 -303 141 -193 346 -516 487 -768 71 -125 268 -531 268 -550 0 -3
9 -27 21 -53 12 -26 25 -56 30 -67 33 -74 120 -335 112 -335 -3 0 0 -6 6 -13
6 -8 13 -24 15 -38 3 -13 5 -24 6 -24 2 0 4 -11 13 -50 3 -11 13 -49 22 -85
20 -76 21 -82 40 -180 13 -68 17 -93 30 -170 13 -81 27 -260 29 -375 1 -50 5
-96 10 -103 4 -7 4 -12 -1 -12 -4 0 -7 -30 -6 -67 9 -237 14 -442 28 -988 3
-99 7 -274 10 -390 11 -406 25 -987 30 -1285 5 -250 5 -249 35 -375 11 -49 23
-100 25 -112 11 -47 110 -323 152 -423 86 -202 217 -456 336 -655 73 -122 263
-409 323 -488 24 -31 44 -61 44 -66 0 -5 3 -11 8 -13 4 -1 37 -41 73 -88 37
-47 83 -103 104 -125 20 -22 62 -69 93 -105 32 -35 66 -74 77 -85 11 -11 52
-56 90 -100 38 -44 86 -98 106 -120 20 -22 50 -56 65 -75 16 -19 35 -42 44
-50 8 -8 42 -46 75 -85 33 -38 62 -72 65 -75 3 -3 35 -39 70 -80 35 -41 69
-80 74 -86 6 -7 27 -31 46 -55 19 -24 53 -64 75 -89 22 -26 58 -68 80 -95 22
-27 45 -53 50 -59 6 -6 39 -47 75 -91 35 -44 67 -82 70 -85 3 -3 21 -25 40
-50 19 -25 43 -54 53 -65 10 -11 37 -45 60 -75 23 -30 44 -57 47 -60 4 -4 82
-106 142 -185 4 -5 18 -23 31 -40 157 -200 343 -494 387 -611 12 -33 34 -79
50 -104 30 -47 119 -224 126 -250 2 -8 24 -74 48 -145 25 -72 47 -142 50 -155
2 -14 10 -47 16 -75 6 -27 14 -61 16 -75 2 -14 7 -41 10 -60 21 -113 32 -205
39 -325 6 -86 6 -338 0 -420 -7 -114 -22 -252 -32 -310 -2 -16 -7 -42 -9 -57
-2 -16 -6 -41 -9 -58 -11 -66 -14 -90 -10 -90 19 0 257 558 280 657 3 10 16
52 30 93 15 41 28 84 30 95 3 11 11 43 20 70 13 45 42 156 50 195 40 187 72
362 81 445 2 22 6 58 9 80 14 127 17 202 17 405 0 185 -5 335 -12 335 -1 0 -3
20 -5 45 -2 25 -6 62 -9 83 -3 20 -8 54 -12 74 -3 21 -14 66 -25 101 -12 34
-22 68 -23 75 -2 7 -8 23 -14 37 -6 14 -23 57 -38 95 -47 124 -135 310 -215
455 -73 134 -151 264 -161 268 -4 2 -8 8 -8 13 0 16 -169 271 -228 344 -4 6
-23 32 -42 60 -19 27 -40 56 -47 65 -6 8 -35 44 -63 80 -28 36 -56 72 -63 80
-27 34 -152 185 -157 190 -3 3 -36 41 -75 85 -71 81 -108 122 -211 230 -80 84
-114 129 -165 215 -86 145 -165 324 -198 452 -1 4 -7 22 -12 40 -28 99 -33
350 -7 393 3 6 9 25 13 44 12 57 75 153 147 223 91 90 306 232 478 317 339
168 643 220 965 166 110 -18 279 -91 354 -153 84 -68 221 -230 221 -260 0 -6
3 -12 8 -14 14 -6 97 -188 85 -188 -3 0 0 -6 6 -14 6 -7 12 -25 13 -40 1 -14
6 -26 11 -26 4 0 6 -4 3 -8 -3 -5 -1 -24 4 -43 25 -93 29 -346 6 -454 -3 -17
-8 -43 -11 -60 -19 -110 -79 -296 -139 -430 -36 -80 -110 -221 -163 -312 -14
-24 -21 -43 -17 -43 4 0 30 14 58 32 277 175 517 467 652 793 45 110 91 257
110 350 2 11 6 31 9 45 6 33 13 74 21 135 3 28 8 58 10 69 2 10 6 80 10 156 6
136 -2 201 -36 275 -5 11 -19 45 -31 75 -20 47 -61 130 -103 205 -28 49 -125
187 -177 251 -160 196 -432 424 -664 554 -289 163 -663 303 -893 335 -20 3
-47 8 -58 10 -62 13 -179 20 -354 20 -231 0 -346 -11 -513 -50 -152 -35 -333
-56 -496 -57 -128 -1 -203 11 -286 47 -16 8 -52 23 -80 35 -108 46 -209 138
-300 274 -54 82 -56 87 -70 221 -3 28 -8 68 -10 90 -3 22 -7 60 -10 84 -2 24
-7 60 -9 80 -3 20 -8 61 -11 91 -3 30 -9 73 -12 95 -3 22 -6 65 -8 95 -4 73
-16 221 -20 240 -2 9 -6 46 -9 82 -4 37 -9 77 -11 90 -3 13 -7 43 -10 68 -3
25 -7 56 -10 70 -2 14 -7 43 -10 65 -3 22 -15 87 -25 145 -11 58 -22 121 -25
140 -3 19 -10 51 -15 70 -5 19 -12 51 -15 70 -3 19 -17 78 -30 130 -13 52 -26
107 -29 122 -2 14 -9 36 -16 47 -6 12 -9 21 -6 21 4 0 -25 106 -63 230 -10 36
-27 90 -36 120 -9 30 -20 64 -24 75 -5 11 -28 74 -51 140 -22 66 -45 129 -50
140 -5 11 -26 61 -46 110 -48 119 -55 136 -135 304 -38 79 -69 147 -69 151 0
5 -3 10 -7 12 -5 2 -21 30 -38 63 -39 78 -110 196 -160 267 -22 31 -47 66 -55
78 -14 21 -46 64 -63 85 -4 6 -40 53 -80 106 -40 52 -86 113 -104 135 -144
179 -178 220 -183 224 -3 3 -30 34 -60 70 -139 165 -447 458 -595 566 l-29 20
47 48 c40 40 45 50 37 67 -26 47 -113 59 -180 24 -16 -8 -30 -13 -30 -11 0 3
-17 -1 -37 -8 -34 -12 -45 -11 -103 10 -89 31 -130 37 -159 22z"/>
<path d="M6852 15119 c-86 -17 -144 -31 -182 -46 -8 -4 -17 -7 -20 -8 -171
-59 -388 -213 -516 -367 -101 -120 -189 -293 -233 -458 -29 -108 -32 -131 -36
-275 -7 -255 41 -440 173 -665 24 -41 47 -77 51 -80 4 -3 20 -23 37 -45 35
-48 137 -150 184 -185 19 -14 41 -32 50 -41 9 -8 23 -19 31 -22 8 -4 37 -21
64 -38 47 -28 127 -67 143 -70 4 0 12 -4 17 -9 8 -6 107 -42 125 -45 3 0 28
-6 55 -13 28 -6 64 -14 80 -18 52 -10 298 -13 350 -4 106 18 121 21 160 32 22
6 48 13 58 15 10 2 31 10 47 18 16 8 36 15 44 15 8 0 16 5 18 10 2 6 13 12 26
13 12 0 22 5 22 9 0 4 5 8 11 8 30 0 264 161 252 174 -3 3 0 6 7 6 33 0 243
260 265 329 3 12 11 21 16 21 5 0 9 7 9 15 0 8 11 38 24 67 25 54 53 135 61
179 30 148 34 185 30 324 -2 86 -10 167 -20 210 -9 39 -18 77 -20 85 -21 89
-103 260 -176 366 -46 66 -158 188 -220 239 -39 33 -191 130 -229 148 -107 48
-155 68 -174 72 -11 2 -39 9 -61 15 -45 12 -78 20 -115 26 -14 3 -90 7 -170 9
-112 2 -166 -1 -238 -16z"/>
<path d="M14738 15135 c-2 -2 -23 -6 -48 -10 -150 -21 -374 -118 -475 -206 -8
-8 -39 -34 -68 -59 -104 -90 -217 -238 -274 -360 -48 -103 -62 -140 -55 -140
4 0 2 -4 -3 -8 -6 -4 -19 -41 -29 -82 -10 -41 -20 -82 -23 -90 -17 -51 -24
-319 -10 -425 43 -343 240 -669 511 -847 22 -15 46 -31 51 -35 37 -30 191 -94
280 -118 138 -37 351 -42 494 -11 80 17 291 104 336 138 6 5 44 33 85 65 68
51 104 84 181 170 122 134 236 382 273 594 17 99 19 299 4 396 -6 37 -12 77
-13 88 -1 11 -5 30 -9 42 -4 12 -9 30 -11 40 -5 25 -52 155 -73 200 -25 55
-101 180 -118 194 -8 6 -14 15 -14 20 0 26 -197 218 -259 253 -9 5 -18 12 -21
15 -8 9 -42 30 -69 41 -13 6 -37 20 -52 31 -16 11 -29 18 -29 14 0 -3 -17 3
-38 14 -37 19 -129 47 -187 57 -16 3 -47 9 -67 14 -35 7 -263 12 -270 5z"/>
<path d="M9906 12880 c14 -67 17 -90 34 -225 6 -49 13 -103 15 -120 27 -190
27 -815 0 -1046 -5 -40 -20 -161 -30 -234 -37 -291 -173 -807 -270 -1030 -7
-16 -32 -75 -55 -130 -53 -126 -156 -331 -228 -455 -57 -97 -175 -282 -193
-303 -5 -7 -31 -41 -57 -77 -101 -141 -207 -264 -416 -484 -83 -88 -163 -173
-178 -189 -14 -15 -73 -79 -131 -140 -57 -62 -115 -124 -128 -138 -77 -85
-206 -225 -219 -239 -16 -17 -175 -193 -225 -249 -16 -19 -37 -42 -45 -51 -8
-9 -62 -69 -120 -135 -58 -66 -114 -129 -125 -142 -11 -12 -39 -44 -61 -70
-23 -26 -73 -84 -111 -128 -38 -44 -114 -134 -168 -200 -55 -66 -102 -122
-105 -125 -44 -42 -387 -492 -481 -632 -58 -85 -67 -101 -139 -228 -20 -36
-53 -92 -72 -126 -110 -191 -212 -491 -244 -719 -3 -27 -8 -59 -10 -70 -25
-127 -24 -599 1 -720 3 -11 7 -38 10 -59 3 -21 7 -48 10 -60 2 -12 7 -39 10
-61 7 -46 52 -238 65 -275 5 -14 21 -65 36 -115 101 -336 296 -731 552 -1117
43 -66 56 -81 47 -56 -5 15 -52 292 -60 358 -33 262 -39 360 -39 615 -1 281 7
373 50 595 27 137 73 259 187 490 206 416 382 728 585 1035 59 88 110 165 114
170 5 6 47 62 95 125 134 178 265 326 402 453 28 27 110 114 183 195 178 200
196 219 253 287 28 32 55 63 60 69 6 6 35 40 65 76 30 36 57 67 60 70 3 3 30
34 60 70 30 36 57 67 60 70 3 3 35 41 70 85 36 44 68 82 71 85 4 4 231 283
292 360 224 282 415 548 522 725 64 106 222 417 269 530 96 232 209 587 240
759 3 15 7 34 10 44 3 9 14 69 25 132 17 98 23 139 36 240 28 203 27 696 -1
890 -10 67 -34 215 -39 240 -3 14 -8 39 -10 55 -13 69 -77 298 -115 409 -35
101 -143 358 -250 591 -15 33 -58 130 -95 215 -38 85 -71 159 -75 163 -4 4 -1
-20 6 -53z"/>
<path d="M12214 12883 c-9 -21 -17 -42 -18 -48 -2 -5 -13 -32 -24 -58 -12 -27
-22 -52 -22 -56 0 -4 -6 -21 -14 -37 -8 -16 -55 -128 -104 -249 -49 -121 -101
-245 -114 -275 -14 -30 -25 -59 -25 -63 -1 -4 -6 -20 -11 -35 -30 -79 -110
-362 -126 -444 -2 -13 -7 -34 -10 -48 -3 -14 -8 -41 -11 -60 -2 -19 -7 -46
-10 -60 -31 -144 -48 -368 -48 -640 0 -251 12 -421 40 -595 7 -47 33 -198 38
-220 2 -11 7 -36 11 -55 7 -40 8 -46 17 -80 4 -14 9 -36 11 -50 23 -131 157
-539 239 -730 5 -14 10 -28 9 -32 -1 -5 3 -8 8 -8 6 0 10 -6 10 -12 0 -17 113
-252 123 -256 4 -2 7 -10 7 -17 0 -20 99 -189 208 -355 79 -121 265 -389 294
-425 5 -5 26 -35 48 -65 22 -30 43 -59 48 -65 4 -5 21 -28 37 -50 17 -22 33
-41 38 -43 4 -2 7 -10 7 -17 0 -7 4 -15 8 -17 4 -1 43 -50 87 -108 44 -58 82
-107 85 -110 3 -3 28 -34 55 -70 28 -36 55 -72 62 -80 7 -8 87 -109 179 -225
92 -115 181 -226 198 -246 17 -20 47 -56 66 -80 71 -89 144 -173 204 -234 78
-81 120 -127 176 -195 25 -30 47 -57 50 -60 27 -25 250 -346 250 -359 0 -5 4
-11 8 -13 22 -9 325 -534 369 -640 9 -21 20 -38 25 -38 4 0 8 -5 8 -10 0 -6
35 -84 78 -173 44 -89 89 -184 101 -212 13 -27 43 -93 68 -145 25 -52 49 -106
54 -120 4 -14 17 -49 28 -79 11 -30 19 -57 16 -59 -3 -3 -1 -10 4 -16 10 -12
47 -180 57 -256 3 -25 7 -56 10 -70 18 -119 25 -557 10 -735 -12 -154 -25
-284 -32 -323 -3 -13 -7 -43 -9 -66 -2 -22 -6 -50 -8 -61 -3 -11 -8 -40 -11
-65 -3 -25 -9 -58 -12 -75 -11 -54 -11 -75 -3 -69 5 3 9 9 9 13 0 5 29 56 65
115 36 58 65 108 65 111 0 3 11 22 24 43 38 61 216 420 216 437 0 3 11 28 24
57 13 29 42 104 65 166 76 207 147 473 175 652 3 19 7 44 10 55 2 11 7 48 11
82 4 35 9 75 11 90 12 71 11 513 -2 603 -7 52 -16 113 -19 135 -9 71 -15 100
-44 229 -21 89 -101 316 -140 394 -159 322 -271 506 -499 821 -77 105 -357
472 -421 551 -11 14 -62 77 -113 141 -133 165 -261 323 -268 329 -3 3 -21 25
-40 50 -19 25 -40 50 -46 55 -6 6 -55 64 -109 130 -54 66 -103 125 -109 130
-6 6 -33 37 -60 70 -27 33 -54 65 -60 70 -6 6 -28 31 -49 57 -21 26 -44 53
-51 60 -7 7 -84 96 -171 198 -88 102 -164 190 -170 195 -6 6 -42 46 -81 90
-38 44 -71 82 -74 85 -3 3 -33 41 -68 85 -34 44 -65 85 -70 90 -48 60 -167
240 -241 363 -196 328 -358 707 -461 1082 -17 63 -35 126 -40 140 -5 14 -12
43 -16 65 -4 22 -8 45 -10 50 -18 79 -50 249 -69 365 -13 80 -33 262 -40 355
-14 190 -17 277 -18 470 0 269 7 399 38 685 8 68 16 125 20 140 8 30 15 90 10
90 -3 0 -12 -17 -21 -37z"/>
<path d="M4430 2565 c0 -2 31 -87 69 -187 38 -101 97 -257 130 -348 34 -91 66
-174 71 -185 9 -18 79 -203 150 -395 34 -92 226 -599 350 -925 50 -132 93
-244 94 -250 2 -5 7 -21 13 -35 6 -14 23 -60 39 -103 l29 -77 304 2 304 3 114
295 c63 162 134 349 159 415 25 66 49 129 54 140 5 11 50 126 99 255 181 473
351 916 360 935 6 11 41 103 80 205 38 102 77 202 86 223 l15 37 -336 -2 -337
-3 -104 -320 c-148 -453 -218 -669 -323 -995 -51 -157 -104 -321 -119 -366
-14 -44 -30 -82 -36 -83 -5 -1 -38 84 -73 191 -34 106 -124 380 -198 608 -204
623 -271 828 -294 903 l-22 67 -339 0 c-186 0 -339 -2 -339 -5z"/>
<path d="M12460 2478 c-1 -80 -1 -2120 0 -2340 l0 -78 303 0 302 0 0 475 0
475 200 1 c217 2 231 2 320 13 429 52 711 280 763 616 4 25 7 106 6 180 -1
156 -23 256 -79 355 -120 212 -311 324 -650 382 -22 3 -293 8 -602 10 l-563 4
0 -93z m1073 -420 c151 -41 219 -124 218 -266 -1 -121 -46 -194 -154 -246 -92
-45 -132 -51 -352 -51 l-180 0 -1 280 c0 154 2 286 4 293 8 22 377 14 465 -10z"/>
<path d="M7620 1860 c-251 -52 -448 -180 -579 -375 -73 -108 -120 -220 -141
-333 -5 -31 -12 -68 -15 -82 -7 -36 -7 -205 0 -270 43 -374 289 -657 657 -759
105 -29 159 -36 313 -36 170 0 248 12 377 57 146 50 294 155 386 275 l32 41
-137 87 c-76 48 -166 105 -201 127 l-62 40 -58 -54 c-59 -54 -143 -101 -203
-115 -72 -15 -231 -7 -291 15 -94 34 -170 93 -218 168 -23 36 -51 120 -42 128
3 4 290 6 638 6 496 0 633 3 636 12 7 19 2 214 -6 291 -23 210 -117 417 -253
554 -101 102 -227 174 -378 214 -110 30 -334 34 -455 9z m348 -402 c34 -11 79
-36 101 -55 49 -41 99 -139 107 -210 l6 -53 -375 0 -375 0 5 33 c8 53 48 132
92 179 103 112 285 156 439 106z"/>
<path d="M11025 1869 c-104 -15 -132 -22 -210 -46 -135 -42 -284 -124 -377
-205 l-37 -33 92 -99 c51 -55 117 -126 147 -158 l56 -59 49 39 c116 92 254
140 395 137 189 -3 292 -78 307 -221 l6 -54 -74 -1 c-41 0 -96 -2 -124 -4
-212 -16 -222 -17 -300 -30 -144 -24 -308 -81 -397 -138 -191 -122 -265 -287
-234 -522 22 -163 122 -298 281 -376 111 -55 202 -73 355 -73 140 0 213 16
317 66 58 29 173 127 173 149 0 5 4 9 8 9 5 0 9 -33 9 -72 1 -40 1 -83 2 -95
l1 -23 265 0 265 0 -4 558 c-3 603 -7 645 -62 812 -103 310 -334 449 -739 447
-66 0 -142 -4 -170 -8z m438 -1120 c-7 -224 -164 -357 -397 -335 -88 8 -146
34 -182 81 -24 31 -29 48 -29 94 0 68 24 114 80 153 52 36 151 67 239 75 39 3
72 7 74 8 1 1 51 2 110 1 l107 -1 -2 -76z"/>
<path d="M15075 1860 c-55 -10 -131 -28 -170 -40 -124 -39 -281 -126 -367
-202 l-36 -33 51 -56 c29 -31 94 -102 146 -157 l94 -101 61 43 c136 97 258
137 395 132 182 -8 285 -84 298 -222 l5 -54 -68 -1 c-477 -7 -771 -91 -942
-266 -87 -90 -125 -191 -124 -329 0 -167 43 -274 150 -380 183 -180 557 -227
810 -101 61 30 172 125 172 147 0 5 4 10 9 10 5 0 9 -37 9 -82 0 -46 0 -89 1
-95 1 -10 61 -13 267 -13 l266 0 -5 558 c-2 306 -7 568 -10 582 -4 13 -9 42
-13 65 -13 91 -39 175 -82 264 -78 162 -210 269 -389 315 -92 24 -114 27 -278
31 -115 3 -173 -1 -250 -15z m488 -1110 c-3 -150 -81 -270 -204 -315 -80 -29
-237 -28 -301 3 -127 60 -143 211 -31 297 50 39 148 72 239 81 33 4 60 7 61 8
2 1 56 2 120 2 l118 -1 -2 -75z"/>
<path d="M9992 1854 c-94 -25 -163 -65 -237 -139 -38 -39 -79 -88 -90 -108
-11 -20 -22 -37 -25 -37 -3 0 -5 55 -5 122 l0 123 -280 0 -279 0 -1 -865 c0
-476 1 -871 3 -877 3 -10 70 -13 292 -13 l287 0 0 473 c0 416 2 480 17 532 42
146 143 244 290 284 43 11 210 9 239 -4 14 -6 17 -2 18 26 1 19 2 50 4 69 7
99 18 396 16 416 -2 16 -185 15 -249 -2z"/>
<path d="M16360 1820 c0 -3 64 -88 142 -190 219 -287 474 -624 482 -637 4 -8
-56 -94 -156 -225 -89 -117 -211 -278 -272 -358 -60 -80 -126 -165 -146 -190
-19 -25 -55 -71 -78 -102 l-43 -58 338 0 338 0 30 45 c17 24 33 45 38 45 4 0
7 4 7 9 0 8 167 247 204 292 8 9 34 47 59 83 l46 66 33 -44 c18 -24 69 -97
113 -160 44 -64 115 -166 158 -226 l78 -110 340 0 340 0 -22 33 c-13 17 -32
44 -43 58 -12 14 -31 39 -43 55 -37 50 -82 110 -336 447 -156 206 -245 332
-241 340 9 14 117 160 124 167 3 3 52 68 110 145 57 77 169 224 247 328 l142
187 -32 1 c-105 3 -595 4 -610 0 -9 -2 -90 -106 -178 -232 -89 -126 -165 -229
-168 -229 -3 1 -78 105 -167 232 l-161 232 -337 0 c-185 1 -336 -1 -336 -4z"/>
</g>
</svg>
